HIERARCHY
ROOT Hips
{
	OFFSET 0.00000 0.00000 0.00000
	CHANNELS 6 Xposition Yposition Zposition Yrotation Zrotation Xrotation 
	JOINT Lumbar
	{
		OFFSET 0 0 0
		CHANNELS 3 Zrotation Xrotation Yrotation
		JOINT Neck
		{
			OFFSET 0.00 0.2701 0.00
			CHANNELS 3 Zrotation Xrotation Yrotation
			End Site
			{
				OFFSET 0.00 0.1379 0.00
			}
		}
		JOINT RightShoulder
		{
			OFFSET 0.0119 0.2289 0.1181
			CHANNELS 3 Zrotation Xrotation Yrotation
			JOINT RightElbow
			{
				OFFSET 0.00 -0.1475 0.00
				CHANNELS 2 Zrotation Yrotation
				JOINT RightWrist
				{
					OFFSET 0.00 -0.1605 0.00
					CHANNELS 2 Zrotation Xrotation
					End Site
					{
						OFFSET 0.0040 -0.1068 0.0006
					}
				}
			}
		}
		JOINT LeftShoulder
		{
			OFFSET 0.0119 0.2289 -0.1181
			CHANNELS 3 Zrotation Xrotation Yrotation
			JOINT LeftElbow
			{
				OFFSET 0.00 -0.1475 0.00
				CHANNELS 2 Zrotation Yrotation
				JOINT LeftWrist
				{
					OFFSET 0.00 -0.1605 0.00
					CHANNELS 2 Zrotation Xrotation
					End Site
					{
						OFFSET 0.0040 -0.1068 -0.0006
					}
				}
			}
		}
	}
	JOINT RightHip
	{
		OFFSET 0.0316 -0.0424 0.0458
		CHANNELS 3 Zrotation Xrotation Yrotation
		JOINT RightKnee
		{
			OFFSET 0.00 -0.2438 0.00
			CHANNELS 1 Zrotation
			JOINT RightAnkle
			{
				OFFSET 0.00 -0.2449 0.00
				CHANNELS 3 Zrotation Xrotation Yrotation
				End Site
				{
					OFFSET 0.1237 -0.0542 0.0051
				}
			}
		}
	}
	JOINT LeftHip
	{
		OFFSET 0.0316 -0.0424 -0.0458
		CHANNELS 3 Zrotation Xrotation Yrotation
		JOINT LeftKnee
		{
			OFFSET 0.00 -0.2438 0.00
			CHANNELS 1 Zrotation
			JOINT LeftAnkle
			{
				OFFSET 0.00 -0.2449 0.00
				CHANNELS 3 Zrotation Xrotation Yrotation
				End Site
				{
					OFFSET 0.1237 -0.0542 -0.0051
				}
			}
		}
	}
}
MOTION
Frames: 27
Frame Time: 0.02
0.6386 -0.17897 -0.1751 364.13544 -9.78259 10.06709 37.49201 15.66802 -0.01486 -19.30785 8.41237 -0.83079 53.74865 -7.4395 21.82091 96.56664 116.09521 -31.29452 -8.54334 99.48215 9.96658 -49.0644 59.48494 -45.30121 34.37458 7.95289 -1.00075 -24.38238 19.56357 -96.1987 -5.79921 -2.60442 -1.93762 92.12669 7.61705 11.98874 -141.62721 -5.87311 4.33171 2.87732
0.63729 -0.17939 -0.17289 364.30058 -9.87742 10.11371 36.6405 15.44387 0.11899 -19.24709 7.54928 -0.83079 54.67831 -7.47021 22.15893 96.3803 115.69327 -30.88371 -8.52871 99.32385 11.93785 -49.96152 61.52646 -40.98754 34.44126 8.9343 -0.42213 -24.22138 19.44328 -96.99425 -5.80428 -2.56015 -1.91274 92.69702 7.89532 11.33114 -141.51601 -5.83466 4.29899 2.85517
0.63542 -0.18007 -0.17037 364.51977 -10.00957 10.14549 35.64344 15.14983 0.27464 -19.18069 6.51486 -0.83079 55.87539 -7.49604 22.5852 96.05978 115.27238 -30.43667 -8.51872 99.3944 14.48491 -51.65432 63.98622 -34.75165 34.86506 10.32481 0.34467 -24.01674 19.35284 -98.02672 -5.8107 -2.50158 -1.87971 93.50992 8.27381 10.61031 -141.38512 -5.78869 4.25955 2.82847
0.63374 -0.18064 -0.16797 364.72089 -10.13506 10.18388 34.7045 14.87831 0.40214 -19.11711 5.55123 -0.83079 56.98291 -7.52183 22.98587 95.77108 114.98827 -30.08294 -8.52157 99.30516 16.71973 -52.85118 66.23181 -30.13439 34.743 11.4536 1.04507 -23.83009 19.25161 -98.95887 -5.81646 -2.44939 -1.85031 94.24135 8.60145 9.91805 -141.25238 -5.74622 4.22279 2.8038
0.63232 -0.18119 -0.16564 364.89641 -10.21576 10.22273 33.79407 14.64436 0.60724 -19.05138 4.61358 -0.83079 57.95972 -7.55614 23.32459 95.60642 114.19588 -29.42383 -8.46517 99.43797 19.16982 -54.58959 68.58746 -22.4907 36.16606 12.89232 1.66547 -23.65076 19.13567 -99.86207 -5.82226 -2.39783 -1.82124 94.85459 8.9509 9.223 -141.16335 -5.70294 4.18748 2.77925
0.63023 -0.18183 -0.1631 365.13843 -10.3971 10.25649 32.7915 14.31668 0.65468 -18.9892 3.58302 -0.83079 59.27044 -7.57373 23.81505 95.15146 114.4157 -29.3671 -8.52842 99.1723 21.30629 -55.40606 70.80679 -20.57035 34.53424 13.79183 2.4937 -23.44591 19.05612 -100.87992 -5.82843 -2.34145 -1.78955 95.76751 9.27911 8.52028 -140.97962 -5.65982 4.14742 2.75328
0.62638 -0.18266 -0.16007 365.53785 -10.87314 10.28795 31.5747 13.74032 0.27438 -18.93809 2.33356 -0.83079 61.43913 -7.52393 24.68419 93.92484 117.81238 -31.21153 -8.96429 97.69447 22.45141 -53.39265 72.58675 -35.89897 23.75449 13.0361 3.89026 -23.18236 19.10074 -102.16975 -5.83432 -2.27593 -1.7527 97.48463 9.52222 7.80985 -140.53537 -5.61814 4.09825 2.726
0.6219 -0.18358 -0.15683 366.00415 -11.44549 10.3136 30.27129 13.07342 -0.26702 -18.89099 0.99836 -0.83079 63.93272 -7.46131 25.70577 92.41177 122.16794 -33.62733 -9.51337 95.81936 23.25784 -50.44354 74.20705 -56.87214 10.00408 11.73625 5.48283 -22.89449 19.17626 -103.56391 -5.84069 -2.20597 -1.71352 99.48853 9.7409 7.09495 -139.99745 -5.57714 4.04418 2.69722
0.61774 -0.18445 -0.15367 366.44818 -11.95642 10.33643 29.00386 12.4527 -0.7439 -18.84219 -0.29502 -0.83079 66.27743 -7.41935 26.67047 91.03066 125.82476 -35.62344 -9.98087 94.16386 24.2094 -47.98335 75.87396 -74.61204 -1.97021 10.72991 6.95895 -22.61718 19.21778 -104.90172 -5.84752 -2.1375 -1.67531 101.33716 9.97211 6.38363 -139.50511 -5.5364 3.99084 2.66816
0.61341 -0.18534 -0.15055 366.86063 -12.54044 10.38094 27.7408 11.80845 -1.18598 -18.79235 -1.60884 -0.83079 68.64114 -7.31541 27.58837 89.63447 130.55066 -38.2674 -10.57145 92.3511 25.21919 -45.27996 77.66514 -95.08736 -15.7188 9.54383 8.55518 -22.34052 19.34339 -106.28656 -5.85164 -2.07047 -1.63704 103.29843 10.20082 5.66266 -138.99922 -5.49279 3.94345 2.64292
0.6093 -0.18622 -0.14732 367.35307 -12.99798 10.38016 26.4559 11.19242 -1.73575 -18.74605 -2.89528 -0.83079 71.03342 -7.33659 28.63572 88.20702 133.32854 -39.73131 -10.93788 90.76878 26.01851 -42.85286 79.15406 -111.25384 -26.49742 8.59603 9.94778 -22.05716 19.3022 -107.59386 -5.86136 -1.99993 -1.5986 105.09143 10.42756 4.96261 -138.49971 -5.45564 3.88272 2.60953
0.6059 -0.18705 -0.1438 368.05753 -13.05246 10.24648 25.08122 10.67863 -2.57284 -18.70549 -4.10921 -0.83079 73.47059 -7.71471 30.02902 86.7332 130.0475 -37.5068 -10.61042 89.91809 26.32731 -41.39536 79.84456 -113.94529 -28.21203 8.45106 10.70654 -21.76275 18.78019 -108.67051 -5.88755 -1.91771 -1.55888 106.33435 10.65486 4.31251 -138.0398 -5.4345 3.7854 2.55327
0.60276 -0.18785 -0.14019 368.83828 -12.98082 10.06897 23.69709 10.19642 -3.5077 -18.66879 -5.28722 -0.83079 75.91516 -8.21744 31.54198 85.24431 124.84979 -34.1255 -10.06156 89.31243 26.4318 -40.2484 80.23439 -112.15046 -26.86138 8.56046 11.25576 -21.46244 18.09092 -109.66217 -5.91914 -1.83275 -1.51935 107.39822 10.88041 3.68541 -137.5899 -5.42017 3.67505 2.48904
0.59955 -0.18865 -0.13663 369.57918 -12.98783 9.91804 22.35215 9.69858 -4.37823 -18.63258 -6.4651 -0.83079 78.32555 -8.65795 32.98289 83.78254 120.82963 -31.4691 -9.64595 88.59446 26.62158 -38.96993 80.76211 -112.5492 -27.00627 8.54365 11.91709 -21.16399 17.48712 -110.68625 -5.94749 -1.75111 -1.48066 108.55463 11.1064 3.05418 -137.13601 -5.40385 3.57127 2.42896
0.5961 -0.18952 -0.13303 370.34522 -12.91221 9.7399 20.85958 9.20253 -5.33701 -18.58773 -7.71579 -0.83079 80.87877 -9.12247 34.50412 82.22433 115.57491 -28.00739 -9.09948 87.86603 26.83113 -37.61877 81.28085 -112.49554 -26.82574 8.55283 12.51946 -20.86787 16.84682 -111.74231 -5.97914 -1.66052 -1.43794 109.6799 11.33359 2.39679 -136.67611 -5.3829 3.4645 2.36651
0.59321 -0.19024 -0.1295 371.07501 -12.97239 9.60669 19.66985 8.71192 -6.13481 -18.56084 -8.80485 -0.83079 83.13048 -9.56568 35.88403 80.86812 112.39132 -25.92116 -8.7678 87.22366 26.95618 -36.5048 81.74693 -112.23892 -26.55149 8.57545 13.1856 -20.56611 16.23948 -112.70771 -6.00521 -1.58803 -1.40373 110.81642 11.55754 1.79848 -136.23277 -5.37318 3.36102 2.30721
0.59177 -0.19054 -0.12619 371.69515 -13.48254 9.62062 19.35141 8.22509 -6.44811 -18.59036 -9.45781 -0.83079 84.55786 -9.92898 36.84674 80.06764 115.67383 -28.08374 -9.11504 86.75298 26.89089 -35.97384 82.15772 -112.54867 -26.79495 8.57409 14.13557 -20.24801 15.78972 -113.46363 -6.01449 -1.56587 -1.39275 112.08905 11.77825 1.36649 -135.82959 -5.39306 3.26907 2.25805
0.59089 -0.19069 -0.12295 372.27413 -14.12556 9.67914 19.33327 7.74385 -6.5979 -18.6364 -9.94836 -0.83079 85.67763 -10.26506 37.6616 79.47387 121.05141 -31.63675 -9.6798 86.3637 26.75029 -35.67481 82.52334 -112.77465 -27.02948 8.58003 15.14583 -19.92494 15.37455 -114.12679 -6.01799 -1.56209 -1.39037 113.36664 11.99491 0.99181 -135.44396 -5.42392 3.18117 2.2125
0.58977 -0.19091 -0.11969 372.86558 -14.67763 9.70905 19.15552 7.26266 -6.83267 -18.66972 -10.51222 -0.83079 86.9305 -10.60721 38.54222 78.7902 125.28095 -34.4399 -10.12338 85.94292 26.65076 -35.27144 82.89981 -112.9924 -27.23642 8.58452 16.08985 -19.60578 14.92583 -114.81894 -6.02416 -1.55018 -1.38423 114.59987 12.21002 0.58482 -135.05256 -5.44962 3.09175 2.16554
0.58858 -0.19114 -0.11641 373.48601 -15.3521 9.77218 19.07149 6.77115 -7.02718 -18.72499 -11.07809 -0.83079 88.2137 -10.97937 39.43433 78.0872 130.26598 -37.69946 -10.65272 85.50667 26.5161 -34.87348 83.30741 -113.25546 -27.47409 8.58943 17.18884 -19.27957 14.54413 -115.56445 -6.0303 -1.53735 -1.37752 116.0033 12.43923 0.20403 -134.65135 -5.47638 2.99996 2.11702
0.58767 -0.1913 -0.11318 374.03538 -15.80771 9.77787 18.8682 6.3026 -7.26382 -18.73863 -11.60029 -0.83079 89.35852 -11.28212 40.26436 77.47575 134.20659 -40.35561 -11.05903 85.11954 26.43805 -34.51584 83.64231 -113.45852 -27.68247 8.59223 17.98435 -18.96679 14.03628 -116.17706 -6.03512 -1.53067 -1.37397 117.05756 12.6383 -0.2167 -134.27559 -5.5033 2.91492 2.07308
0.58736 -0.1913 -0.11 374.39682 -15.60185 9.60946 18.22399 5.89167 -7.66951 -18.63141 -12.05274 -0.83079 90.21224 -11.38922 40.9704 77.05104 134.69916 -40.99207 -11.06402 84.84221 26.5484 -34.20988 83.79815 -113.55943 -27.84613 8.58453 17.9079 -18.69399 13.14629 -116.45223 -6.03719 -1.53781 -1.3778 117.1303 12.75366 -0.77303 -133.95772 -5.52944 2.84224 2.03798
0.58731 -0.19122 -0.10688 374.68782 -15.17635 9.38288 17.45667 5.50453 -8.12011 -18.48213 -12.4646 -0.83079 90.93383 -11.42887 41.61605 76.71466 134.08707 -40.98135 -10.94028 84.61183 26.71702 -33.93615 83.88189 -113.61722 -27.98974 8.57375 17.52853 -18.43482 12.13395 -116.59591 -6.03821 -1.55029 -1.38439 116.85511 12.83902 -1.36944 -133.66633 -5.55523 2.77753 2.00807
0.58715 -0.19118 -0.10377 375.01221 -14.86821 9.18607 16.77067 5.10896 -8.54162 -18.35323 -12.88838 -0.83079 91.70608 -11.50563 42.28171 76.34768 134.0245 -41.28161 -10.88217 84.36214 26.85082 -33.6474 83.99327 -113.68801 -28.13497 8.56503 17.3015 -18.16805 11.19474 -116.79585 -6.04005 -1.55943 -1.38919 116.75097 12.9392 -1.94036 -133.36806 -5.58 2.71239 1.97758
0.58695 -0.19113 -0.10051 375.33059 -14.49068 8.97637 15.98764 4.70269 -8.99518 -18.21928 -13.33544 -0.83079 92.50914 -11.55388 42.97489 75.94625 133.83488 -41.55912 -10.80172 84.10523 27.0163 -33.36619 84.12472 -113.77908 -28.30814 8.55396 17.0146 -17.9061 10.18158 -117.00763 -6.0403 -1.57296 -1.39646 116.59327 13.03462 -2.54044 -133.04861 -5.60945 2.63288 1.93916
0.5869 -0.19108 -0.09758 375.64381 -14.20367 8.77958 15.37406 4.32536 -9.39348 -18.08598 -13.7247 -0.83079 93.21828 -11.64631 43.59684 75.63656 133.61847 -41.71149 -10.73406 83.87552 27.13161 -33.07679 84.19762 -113.82161 -28.4207 8.54688 16.77957 -17.63859 9.29428 -117.16425 -6.04362 -1.5785 -1.39923 116.46326 13.13238 -3.08946 -132.7794 -5.62976 2.58641 1.91911
0.58719 -0.19105 -0.09546 375.97257 -14.22069 8.62869 15.25294 4.01336 -9.63936 -17.96175 -13.97993 -0.83079 93.72138 -11.87327 44.04932 75.54371 133.60828 -41.67865 -10.73554 83.69117 27.08616 -32.73106 84.12908 -113.73366 -28.36311 8.55221 16.76243 -17.3426 8.77357 -117.20504 -6.05637 -1.55946 -1.3882 116.50513 13.24827 -3.49244 -132.64208 -5.6174 2.61795 1.94243
